G04 ================== begin FILE IDENTIFICATION RECORD ==================*
G04 Layout Name:  C:/work_CrCAD/allegro/CAD_EX73022.brd*
G04 Film Name:    BOTTOM*
G04 File Format:  Gerber RS274X*
G04 File Origin:  Cadence Allegro 17.2-P019*
G04 Origin Date:  Tue Jul 30 16:54:06 2019*
G04 *
G04 Layer:  ETCH/BOTTOM*
G04 Layer:  PIN/BOTTOM*
G04 Layer:  VIA CLASS/BOTTOM*
G04 *
G04 Offset:    (0.0000 0.0000)*
G04 Mirror:    No*
G04 Mode:      Positive*
G04 Rotation:  0*
G04 FullContactRelief:  No*
G04 UndefLineWidth:     0.0000*
G04 ================== end FILE IDENTIFICATION RECORD ====================*
%FSLAX25Y25*MOMM*%
%IR0*IPPOS*OFA0.00000B0.00000*MIA0B0*SFA1.00000B1.00000*%
%ADD10C,.635*%
%ADD14C,.6096*%
%ADD16O,1.016X1.524*%
%ADD15R,1.016X1.524*%
%ADD17C,1.27*%
%ADD11C,1.524*%
%ADD13C,1.651*%
%ADD12R,1.524X1.524*%
%ADD18C,.5*%
%ADD19C,1.*%
%ADD20C,2.2704*%
%ADD21C,2.3974*%
G75*
%LPD*%
G75*
G36*
G01X754020Y500000D02*
Y754020D01*
X500000D01*
Y1764980D01*
G02X517340Y1772170I10159J3D01*
G01X789330Y1500180D01*
X3401670D01*
X3643320Y1741830D01*
Y2135180D01*
X4000170D01*
X4074440Y2209450D01*
G02X4091780Y2202260I7181J-7187D01*
G01Y2128780D01*
X4275880Y1944680D01*
X5370170D01*
X5534940Y2109450D01*
X5536720Y2109640D01*
G03X5637360Y2210280I-12220J112860D01*
G01X5637550Y2212060D01*
X5647850Y2222360D01*
G02X5665180Y2215780I7188J-7180D01*
G03X5888600Y2194840I113321J6719D01*
G01X5889560Y2198680D01*
X6857670D01*
X7008820Y2349830D01*
Y2775990D01*
G02X7026620Y2782690I10160J1D01*
G03Y2932310I85380J74810D01*
G02X7008820Y2939010I-7640J6699D01*
G01Y3029990D01*
G02X7026620Y3036690I10160J1D01*
G03X7118720Y3224820I85382J74810D01*
G02X7112140Y3242150I600J10142D01*
G01X7122440Y3252450D01*
X7124220Y3252640D01*
G03X6999140Y3377720I-12220J112860D01*
G01X6998950Y3375940D01*
X6834180Y3211170D01*
Y2422170D01*
X6785330Y2373320D01*
X5947620D01*
X5856610Y2464330D01*
X5642840D01*
X5514060Y2335550D01*
X5512280Y2335360D01*
G03X5411640Y2234720I12220J-112860D01*
G01X5411450Y2232940D01*
X5401150Y2222640D01*
G02X5383820Y2229220I-7188J7180D01*
G03X5195690Y2137120I-113320J-6718D01*
G02X5188990Y2119320I-6699J-7640D01*
G01X5098010D01*
G02X5091310Y2137120I-1J10160D01*
G03X4941690I-74810J85380D01*
G02X4934990Y2119320I-6699J-7640D01*
G01X4399510D01*
G02X4392810Y2137120I-1J10160D01*
G03X4279980Y2329460I-74814J85377D01*
G02X4266420Y2339040I-3399J9575D01*
G01Y2359960D01*
G02X4279980Y2369540I10161J5D01*
G03X4412880Y2414180I38020J106961D01*
G01X5458030D01*
X5586820Y2542970D01*
Y2889620D01*
G03X5462180I-62320J94880D01*
G01Y2594590D01*
X5406410Y2538820D01*
X4412880D01*
G03X4324720Y2589820I-94883J-62319D01*
G02X4318140Y2607150I600J10142D01*
G01X4328440Y2617450D01*
X4330220Y2617640D01*
G03X4205140Y2742720I-12220J112860D01*
G01X4204950Y2740940D01*
X4168660Y2704650D01*
G02X4151320Y2711840I-7181J7187D01*
G01Y2948330D01*
X4187350Y2984360D01*
G02X4204680Y2977780I7188J-7180D01*
G03X4392810Y3069880I113320J6718D01*
G02X4399510Y3087680I6699J7640D01*
G01X4789830D01*
X4903450Y2974060D01*
X4903640Y2972280D01*
G03X5028720Y3097360I112860J12220D01*
G01X5026940Y3097550D01*
X4862170Y3262320D01*
X4218330D01*
X3976680Y3020670D01*
Y2358670D01*
X3927830Y2309820D01*
X3628540D01*
G03X3468680Y2149960I-72540J-87320D01*
G01Y1814170D01*
X3329330Y1674820D01*
X2567360D01*
G02X2560260Y1692250I-3J10160D01*
G03X2374100Y1840320I-83764J85748D01*
G01X1295810D01*
X1205320Y1930810D01*
Y2318120D01*
G03X1080680I-62320J94880D01*
G01Y1879190D01*
X1244190Y1715680D01*
X2374100D01*
G03X2392740Y1692250I102392J62329D01*
G02X2385640Y1674820I-7097J-7270D01*
G01X861670D01*
X587320Y1949170D01*
Y2165460D01*
G03X500000Y2351520I-87320J72540D01*
G01Y2378480D01*
G03Y2605520I0J113520D01*
G01Y2632480D01*
G03X572540Y2658680I0J113521D01*
G01X1956670D01*
X2309820Y3011830D01*
Y4363490D01*
G02X2327620Y4370190I10160J1D01*
G03X2524670Y4465430I85383J74811D01*
G01X2524190Y4468050D01*
X2565810Y4509680D01*
X3270620D01*
G03Y4634320I94880J62320D01*
G01X2524010D01*
G02X2514900Y4648960I7J10158D01*
G03X2522640Y4728410I-101901J50029D01*
G02X2539640Y4738220I9814J2629D01*
G01X2577690Y4700180D01*
X5309380D01*
Y4686300D01*
G03X5346700Y4648980I37320J0D01*
G01X5448300D01*
G03X5477230Y4662730I0J37309D01*
G03X5584540Y4672600I47269J74370D01*
G02X5591460I3460J-3720D01*
G03X5739620Y4737100I60040J64500D01*
G01Y4787900D01*
G03X5591460Y4852400I-88120J0D01*
G02X5584540I-3460J3720D01*
G03X5477230Y4862270I-60041J-64500D01*
G03X5448300Y4876020I-28930J-23559D01*
G01X5346700D01*
G03X5309380Y4838700I0J-37320D01*
G01Y4824820D01*
X4626580D01*
G02X4622320Y4844200I2J10159D01*
G03X4469600Y5015320I-50320J108800D01*
G01X2507880D01*
G03X2419720Y5066320I-94883J-62319D01*
G02X2413140Y5083650I600J10142D01*
G01X2423440Y5093950D01*
X2425220Y5094140D01*
G03X2525860Y5194780I-12220J112860D01*
G01X2526050Y5196560D01*
X2703170Y5373680D01*
X3410380D01*
G03X3574620I82120J87320D01*
G01X4163670D01*
X4417670Y5627680D01*
X5388460D01*
G03Y5802320I72540J87320D01*
G01X4345330D01*
X4091330Y5548320D01*
X3574620D01*
G03X3410380I-82120J-87320D01*
G01X2630830D01*
X2402560Y5320050D01*
X2400780Y5319860D01*
G03X2300140Y5219220I12220J-112860D01*
G01X2299950Y5217440D01*
X2135180Y5052670D01*
Y3084170D01*
X1884330Y2833320D01*
X572540D01*
G03X500000Y2859520I-72540J-87321D01*
G01Y2886480D01*
G03X612860Y2987780I0J113520D01*
G01X613050Y2989560D01*
X711170Y3087680D01*
X1070460D01*
G03X1130780Y3062140I72539J87320D01*
G01X1132560Y3061950D01*
X1297330Y2897180D01*
X1750670D01*
X1914970Y3061480D01*
X1981200D01*
G03X2018520Y3098800I0J37320D01*
G01Y3251200D01*
G03X1981200Y3288520I-37320J0D01*
G01X1828800D01*
G03X1791480Y3251200I0J-37320D01*
G01Y3184970D01*
X1781650Y3175140D01*
G02X1764320Y3181720I-7188J7180D01*
G03X1576190Y3089620I-113320J-6718D01*
G02X1569490Y3071820I-6699J-7640D01*
G01X1478510D01*
G02X1471810Y3089620I-1J10160D01*
G03X1283680Y3181720I-74810J85382D01*
G02X1266350Y3175140I-10142J600D01*
G01X1256050Y3185440D01*
X1255860Y3187220D01*
G03X1070460Y3262320I-112860J-12220D01*
G01X638830D01*
X517340Y3140830D01*
G02X500000Y3148020I-7181J7187D01*
G01Y3878480D01*
G03Y4105520I0J113520D01*
G01Y4132480D01*
G03Y4359520I0J113520D01*
G01Y4386480D01*
G03Y4613520I0J113520D01*
G01Y6245980D01*
X754020D01*
Y6500000D01*
X9245980D01*
Y6245980D01*
X9500000D01*
Y4113520D01*
G03Y3886480I0J-113520D01*
G01Y3859520D01*
G03Y3632480I0J-113520D01*
G01Y917520D01*
X9082480D01*
Y500000D01*
X754020D01*
G37*
G36*
G01X2629310Y4824820D02*
X2580800Y4873340D01*
G02X2587980Y4890680I7184J7182D01*
G01X4469600D01*
G03X4521680Y4844200I102400J62320D01*
G02X4517420Y4824820I-4262J-9221D01*
G01X2629310D01*
G37*
G36*
G01X2327620Y4773810D02*
G02X2309820Y4780510I-7640J6699D01*
G01Y4871490D01*
G02X2327620Y4878190I10160J1D01*
G03X2433430Y4841330I85385J74808D01*
G01X2436050Y4841810D01*
X2452220Y4825640D01*
G02X2442410Y4808640I-7181J-7186D01*
G03X2327620Y4773810I-29411J-109642D01*
G37*
G36*
G01Y4519810D02*
G02X2309820Y4526510I-7640J6699D01*
G01Y4617490D01*
G02X2327620Y4624190I10160J1D01*
G03X2442410Y4589360I85379J74812D01*
G02X2452220Y4572360I2629J-9814D01*
G01X2436050Y4556190D01*
X2433430Y4556670D01*
G03X2327620Y4519810I-20425J-111668D01*
G37*
%LPC*%
G75*
G36*
G01X7633480Y3860800D02*
Y4013200D01*
G02X7670800Y4050520I37320J0D01*
G01X7823200D01*
G02X7860520Y4013200I0J-37320D01*
G01Y3860800D01*
G02X7823200Y3823480I-37320J0D01*
G01X7670800D01*
G02X7633480Y3860800I0J37320D01*
G37*
G36*
G01X6236480Y3543300D02*
Y3695700D01*
G02X6273800Y3733020I37320J0D01*
G01X6426200D01*
G02X6463520Y3695700I0J-37320D01*
G01Y3543300D01*
G02X6426200Y3505980I-37320J0D01*
G01X6273800D01*
G02X6236480Y3543300I0J37320D01*
G37*
G36*
G01X5664980Y2908300D02*
Y3060700D01*
G02X5702300Y3098020I37320J0D01*
G01X5854700D01*
G02X5892020Y3060700I0J-37320D01*
G01Y2908300D01*
G02X5854700Y2870980I-37320J0D01*
G01X5702300D01*
G02X5664980Y2908300I0J37320D01*
G37*
G36*
G01X3442480D02*
Y3060700D01*
G02X3479800Y3098020I37320J0D01*
G01X3632200D01*
G02X3669520Y3060700I0J-37320D01*
G01Y2908300D01*
G02X3632200Y2870980I-37320J0D01*
G01X3479800D01*
G02X3442480Y2908300I0J37320D01*
G37*
G36*
G01X1537480Y5130800D02*
Y5283200D01*
G02X1574800Y5320520I37320J0D01*
G01X1727200D01*
G02X1764520Y5283200I0J-37320D01*
G01Y5130800D01*
G02X1727200Y5093480I-37320J0D01*
G01X1574800D01*
G02X1537480Y5130800I0J37320D01*
G37*
G36*
G01X8090310Y4697820D02*
X8350620D01*
G02Y4573180I94880J-62320D01*
G01X8038690D01*
X7965860Y4646000D01*
X7963150Y4645410D01*
G02X8054590Y4736850I-25650J117090D01*
G01X8054000Y4734140D01*
X8090310Y4697820D01*
G37*
G36*
G01X3532950Y2619310D02*
X3518310Y2604680D01*
X3339690D01*
X3212690Y2731680D01*
X2578900D01*
G02Y2856320I-102400J62320D01*
G01X3264310D01*
X3391310Y2729320D01*
X3442380D01*
X3442540Y2734230D01*
G02X3535570Y2618830I113460J-3732D01*
G01X3532950Y2619310D01*
G37*
G36*
G01X2949360Y2021500D02*
X3386150Y2458280D01*
X3432580D01*
G03X3442720Y2469100I2J10159D01*
G02X3535570Y2364830I113280J7398D01*
G01X3532950Y2365310D01*
X3501270Y2333640D01*
X3437770D01*
X3037500Y1933360D01*
X3038090Y1930650D01*
G02X2946650Y2022090I-117090J-25650D01*
G01X2949360Y2021500D01*
G37*
G54D20*
X1651000Y889000D03*
X1397000D03*
Y2413000D03*
X1651000D03*
X1905000D03*
X1651000Y4445000D03*
Y4699000D03*
Y4953000D03*
X3619500Y4572000D03*
X5270500Y2984500D03*
X5207000Y5461000D03*
Y5969000D03*
X6350000Y2857500D03*
Y3111500D03*
Y3365500D03*
X6286500Y4064000D03*
Y4318000D03*
X7112000Y3619500D03*
X7747000Y2946400D03*
X8699500Y4381500D03*
Y4889500D03*
G54D21*
X2921000Y889000D03*
X3111500Y4064000D03*
X3175000Y3556000D03*
X4191000D03*
X4127500Y4064000D03*
X4572000Y3937000D03*
X4508500Y5461000D03*
X5778500Y5270500D03*
X6921500Y4762500D03*
X6794500Y5270500D03*
X8636000Y2730500D03*
Y3746500D03*
%LPD*%
G75*
G54D10*
X500000Y500000D03*
Y6500000D03*
X9500000D03*
G54D11*
X1143000Y2413000D03*
X500000Y2238000D03*
Y2492000D03*
X1143000Y3175000D03*
X500000Y2746000D03*
Y3000000D03*
Y3992000D03*
Y4246000D03*
Y4500000D03*
X1651000Y889000D03*
X1397000D03*
Y2413000D03*
X1651000D03*
X1905000D03*
X1397000Y3175000D03*
X1651000D03*
Y4445000D03*
Y4699000D03*
Y4953000D03*
X2413000Y4445000D03*
Y4699000D03*
Y4953000D03*
Y5207000D03*
X3365500Y4572000D03*
X3556000Y2222500D03*
Y2476500D03*
Y2730500D03*
X3619500Y4572000D03*
X4318000Y2222500D03*
Y2476500D03*
Y2730500D03*
X5016500Y2222500D03*
X4318000Y2984500D03*
X5016500D03*
X5270500Y2222500D03*
X5524500D03*
X5778500D03*
X5270500Y2984500D03*
X5524500D03*
X5461000Y5715000D03*
X5207000Y5461000D03*
Y5969000D03*
X6350000Y2857500D03*
Y3111500D03*
Y3365500D03*
X6286500Y4064000D03*
Y4318000D03*
X7112000Y2857500D03*
Y3111500D03*
Y3365500D03*
Y3619500D03*
X7747000Y2946400D03*
X8699500Y4381500D03*
X8445500Y4635500D03*
X8699500Y4889500D03*
X9500000Y3746000D03*
Y4000000D03*
G54D12*
X1905000Y3175000D03*
X1651000Y5207000D03*
X3556000Y2984500D03*
X5778500D03*
X6350000Y3619500D03*
X7747000Y3937000D03*
G54D13*
X2476500Y1778000D03*
Y2794000D03*
X2921000Y889000D03*
Y1905000D03*
X3175000Y3556000D03*
X3111500Y4064000D03*
X3492500Y5461000D03*
X4191000Y3556000D03*
X4127500Y4064000D03*
X4572000Y3937000D03*
Y4953000D03*
X4508500Y5461000D03*
X5778500Y5270500D03*
X6921500Y4762500D03*
X6794500Y5270500D03*
X7937500Y4762500D03*
X8636000Y2730500D03*
Y3746500D03*
G54D14*
X4953000Y3238500D03*
G54D15*
X5397500Y4762500D03*
G54D16*
X5524500D03*
X5651500D03*
G54D17*
X9400000Y600000D03*
G54D18*
G01X500000Y2373400D02*
Y2492000D01*
G01D02*
Y2610600D01*
G01Y2492000D02*
X618600D01*
G01X500000Y3873400D02*
Y3992000D01*
G01D02*
Y4110600D01*
G01Y3992000D02*
X618600D01*
G01X1651000Y770400D02*
Y889000D01*
G01D02*
Y1007600D01*
G01X1532400Y889000D02*
X1651000D01*
G01D02*
X1769600D01*
G01X1143000Y2413000D02*
Y1905000D01*
X1270000Y1778000D01*
X2476500D01*
G01X1651000Y2294400D02*
Y2413000D01*
G01D02*
Y2531600D01*
G01X1532400Y2413000D02*
X1651000D01*
G01D02*
X1769600D01*
G01X1651000Y5088400D02*
Y5207000D01*
G01D02*
Y5325600D01*
G01X1532400Y5207000D02*
X1651000D01*
G01D02*
X1769600D01*
G01X3556000Y2730500D02*
X3492500Y2667000D01*
X3365500D01*
X3238500Y2794000D01*
X2476500D01*
G01X2413000Y4953000D02*
X2603500Y4762500D01*
X5397500D01*
G01X3365500Y4572000D02*
X2540000D01*
X2413000Y4445000D01*
G01Y4953000D02*
X4572000D01*
G01X2921000Y764050D02*
Y889000D01*
G01D02*
Y1013950D01*
G01X2796050Y889000D02*
X2921000D01*
G01D02*
X3045950D01*
G01X2921000Y1905000D02*
X3411960Y2395960D01*
X3475460D01*
X3556000Y2476500D01*
G01X3619500Y4453400D02*
Y4572000D01*
G01D02*
Y4690600D01*
G01X3500900Y4572000D02*
X3619500D01*
G01D02*
X3738100D01*
G01X4318000Y2476500D02*
X5432220D01*
X5524500Y2568780D01*
Y2984500D01*
G01X4572000Y3812050D02*
Y3937000D01*
G01D02*
Y4061950D01*
G01X4447050Y3937000D02*
X4572000D01*
G01D02*
X4696950D01*
G01X5270500Y2865900D02*
Y2984500D01*
G01D02*
Y3103100D01*
G01X5151900Y2984500D02*
X5270500D01*
G01D02*
X5389100D01*
G01X6350000Y2992900D02*
Y3111500D01*
G01D02*
Y3230100D01*
G01X6231400Y3111500D02*
X6350000D01*
G01D02*
X6468600D01*
G01X6286500Y3945400D02*
Y4064000D01*
G01D02*
Y4182600D01*
G01X6167900Y4064000D02*
X6286500D01*
G01D02*
X6405100D01*
G01X8445500Y4635500D02*
X8064500D01*
X7937500Y4762500D01*
G01X8636000Y2605550D02*
Y2730500D01*
G01D02*
Y2855450D01*
G01X8511050Y2730500D02*
X8636000D01*
G01D02*
X8760950D01*
G01X9500000Y3627400D02*
Y3746000D01*
G01D02*
Y3864600D01*
G01X9381400Y3746000D02*
X9500000D01*
G54D19*
G01X500000Y2238000D02*
Y1913000D01*
X825500Y1587500D01*
X3365500D01*
X3556000Y1778000D01*
Y2222500D01*
G01X1905000Y3175000D02*
X1714500Y2984500D01*
X1333500D01*
X1143000Y3175000D01*
G01X500000Y3000000D02*
X675000Y3175000D01*
X1143000D01*
G01X2413000Y5207000D02*
X2222500Y5016500D01*
Y3048000D01*
X1920500Y2746000D01*
X500000D01*
G01X3492500Y5461000D02*
X2667000D01*
X2413000Y5207000D01*
G01X3556000Y2222500D02*
X3964000D01*
X4064000Y2322500D01*
Y2984500D01*
X4254500Y3175000D01*
X4826000D01*
X5016500Y2984500D01*
G01X5524500Y2222500D02*
X5334000Y2032000D01*
X4312050D01*
X4179100Y2164950D01*
Y2591600D01*
X4318000Y2730500D01*
G01X5461000Y5715000D02*
X4381500D01*
X4127500Y5461000D01*
X3492500D01*
G01X5524500Y2222500D02*
X5679010Y2377010D01*
X5820440D01*
X5911450Y2286000D01*
X6821500D01*
X6921500Y2386000D01*
Y3175000D01*
X7112000Y3365500D01*
M02*
