G04 ================== begin FILE IDENTIFICATION RECORD ==================*
G04 Layout Name:  C:/work_CrCAD/allegro/CAD_EX73022.brd*
G04 Film Name:    SilkT*
G04 File Format:  Gerber RS274X*
G04 File Origin:  Cadence Allegro 17.2-P019*
G04 Origin Date:  Tue Jul 30 16:54:06 2019*
G04 *
G04 Layer:  REF DES/SILKSCREEN_TOP*
G04 Layer:  PACKAGE GEOMETRY/SILKSCREEN_TOP*
G04 Layer:  BOARD GEOMETRY/SILKSCREEN_TOP*
G04 *
G04 Offset:    (0.0000 0.0000)*
G04 Mirror:    No*
G04 Mode:      Positive*
G04 Rotation:  0*
G04 FullContactRelief:  No*
G04 UndefLineWidth:     0.2000*
G04 ================== end FILE IDENTIFICATION RECORD ====================*
%FSLAX25Y25*MOMM*%
%IR0*IPPOS*OFA0.00000B0.00000*MIA0B0*SFA1.00000B1.00000*%
%ADD10C,.4*%
%ADD11C,.2032*%
%ADD12C,.2*%
G75*
%LPD*%
G75*
G54D10*
G01X3266670Y700000D02*
X3133330D01*
Y1100000D01*
X3266670D01*
G01X3213330Y906670D02*
X3133330D01*
G01X3415200Y700000D02*
Y1100000D01*
G01X3580400Y880000D02*
X3687070D01*
X3677070Y926670D01*
X3660400Y953330D01*
X3637070Y966660D01*
X3613730Y959990D01*
X3593730Y940000D01*
X3580400Y893330D01*
X3573730Y853320D01*
Y813330D01*
X3580400Y773330D01*
X3597060Y733330D01*
X3617070Y706670D01*
X3640400Y700000D01*
X3663740Y713330D01*
X3687070Y753320D01*
G01X3898930Y933330D02*
X3875600Y959990D01*
X3855600Y966660D01*
X3828930Y953330D01*
X3808930Y926670D01*
X3795600Y880000D01*
X3792260Y833330D01*
X3795600Y786660D01*
X3808930Y746660D01*
X3828930Y713330D01*
X3855600Y700000D01*
X3878940Y713330D01*
X3898930Y739990D01*
G01X4060800Y1100000D02*
Y700000D01*
G01X4014130Y966660D02*
X4107470D01*
G01X4276000Y700000D02*
X4256000Y706670D01*
X4236000Y733330D01*
X4222660Y780000D01*
X4216000Y833330D01*
X4222660Y886660D01*
X4236000Y933330D01*
X4256000Y959990D01*
X4276000Y966660D01*
X4296000Y959990D01*
X4316000Y933330D01*
X4329330Y886660D01*
X4332670Y833330D01*
X4329330Y780000D01*
X4316000Y733330D01*
X4296000Y706670D01*
X4276000Y700000D01*
G01X4434530D02*
Y966660D01*
G01Y899990D02*
X4447870Y933330D01*
X4467870Y959990D01*
X4494540Y966660D01*
X4517860Y959990D01*
X4537870Y933330D01*
X4547870Y886660D01*
Y700000D01*
G01X4706400Y966660D02*
Y700000D01*
G01Y1073330D02*
X4699730Y1079990D01*
Y1093330D01*
X4706400Y1100000D01*
X4713070Y1093330D01*
Y1079990D01*
X4706400Y1073330D01*
G01X4974930Y933330D02*
X4951600Y959990D01*
X4931600Y966660D01*
X4904930Y953330D01*
X4884930Y926670D01*
X4871600Y880000D01*
X4868260Y833330D01*
X4871600Y786660D01*
X4884930Y746660D01*
X4904930Y713330D01*
X4931600Y700000D01*
X4954940Y713330D01*
X4974930Y739990D01*
G01X5425330Y1066660D02*
X5405330Y1086670D01*
X5382000Y1100000D01*
X5355340D01*
X5325330Y1079990D01*
X5302000Y1046670D01*
X5285330Y1006660D01*
X5272000Y940000D01*
X5268660Y880000D01*
X5275330Y820000D01*
X5285330Y780000D01*
X5305330Y739990D01*
X5328670Y713330D01*
X5352000Y700000D01*
X5375330D01*
X5398670Y713330D01*
X5418670Y733330D01*
X5435340Y759990D01*
G01X5483860Y700000D02*
X5567200Y1100000D01*
X5650540Y700000D01*
G01X5620530Y839990D02*
X5513860D01*
G01X5709070Y700000D02*
Y1100000D01*
X5775730D01*
X5802400Y1079990D01*
X5822400Y1053330D01*
X5839070Y1013340D01*
X5852400Y966660D01*
X5855730Y899990D01*
X5852400Y833330D01*
X5839070Y786660D01*
X5822400Y746660D01*
X5802400Y720000D01*
X5775730Y700000D01*
X5709070D01*
G01X4133330Y6200000D02*
Y6600000D01*
X4213330D01*
X4240000Y6579990D01*
X4260000Y6533340D01*
X4266670Y6480000D01*
X4260000Y6426670D01*
X4243330Y6386660D01*
X4213330Y6366660D01*
X4133330D01*
G01X4341870Y6600000D02*
Y6313330D01*
X4355200Y6253320D01*
X4381860Y6213330D01*
X4415200Y6200000D01*
X4448540Y6213330D01*
X4475200Y6253320D01*
X4488530Y6313330D01*
Y6600000D01*
G01X4563730D02*
Y6200000D01*
X4697070D01*
G01X4775600Y6253320D02*
X4802270Y6220000D01*
X4832270Y6200000D01*
X4858930D01*
X4885600Y6220000D01*
X4905600Y6253320D01*
X4915600Y6300000D01*
X4908940Y6346660D01*
X4892270Y6386660D01*
X4862270Y6413340D01*
X4822270Y6426670D01*
X4798930Y6453330D01*
X4788930Y6500000D01*
X4795600Y6546670D01*
X4812260Y6579990D01*
X4835600Y6600000D01*
X4858930D01*
X4882270Y6586670D01*
X4902270Y6553330D01*
G01X5127470Y6200000D02*
X4994130D01*
Y6600000D01*
X5127470D01*
G01X5074130Y6406670D02*
X4994130D01*
G01X5404530Y6200000D02*
Y6600000D01*
X5491200Y6266660D01*
X5577870Y6600000D01*
Y6200000D01*
G01X5706400D02*
X5679730Y6206670D01*
X5656400Y6233330D01*
X5636400Y6273330D01*
X5623060Y6320000D01*
X5616400Y6373330D01*
Y6426670D01*
X5623060Y6480000D01*
X5636400Y6526670D01*
X5656400Y6566660D01*
X5679730Y6593330D01*
X5706400Y6600000D01*
X5733060Y6593330D01*
X5756400Y6566660D01*
X5776400Y6526670D01*
X5789740Y6480000D01*
X5796400Y6426670D01*
Y6373330D01*
X5789740Y6320000D01*
X5776400Y6273330D01*
X5756400Y6233330D01*
X5733060Y6206670D01*
X5706400Y6200000D01*
G01X5848270D02*
Y6600000D01*
X5914930D01*
X5941600Y6579990D01*
X5961600Y6553330D01*
X5978270Y6513340D01*
X5991600Y6466660D01*
X5994930Y6399990D01*
X5991600Y6333330D01*
X5978270Y6286660D01*
X5961600Y6246660D01*
X5941600Y6220000D01*
X5914930Y6200000D01*
X5848270D01*
G01X6063470Y6600000D02*
Y6313330D01*
X6076800Y6253320D01*
X6103460Y6213330D01*
X6136800Y6200000D01*
X6170140Y6213330D01*
X6196800Y6253320D01*
X6210130Y6313330D01*
Y6600000D01*
G01X6285330D02*
Y6200000D01*
X6418670D01*
G01X6483860D02*
X6567200Y6600000D01*
X6650540Y6200000D01*
G01X6620530Y6339990D02*
X6513860D01*
G01X6782400Y6600000D02*
Y6200000D01*
G01X6705730Y6600000D02*
X6859070D01*
G01X6957600D02*
X7037590D01*
G01X6997600D02*
Y6200000D01*
G01X6957600D02*
X7037590D01*
G01X7212800D02*
X7186130Y6206670D01*
X7162800Y6233330D01*
X7142800Y6273330D01*
X7129460Y6320000D01*
X7122800Y6373330D01*
Y6426670D01*
X7129460Y6480000D01*
X7142800Y6526670D01*
X7162800Y6566660D01*
X7186130Y6593330D01*
X7212800Y6600000D01*
X7239460Y6593330D01*
X7262800Y6566660D01*
X7282800Y6526670D01*
X7296140Y6480000D01*
X7302800Y6426670D01*
Y6373330D01*
X7296140Y6320000D01*
X7282800Y6273330D01*
X7262800Y6233330D01*
X7239460Y6206670D01*
X7212800Y6200000D01*
G01X7351330D02*
Y6600000D01*
X7504670Y6200000D01*
Y6600000D01*
G54D11*
G01X5336030Y4574030D02*
X5712970D01*
G01X5336030Y4950970D02*
X5278370Y4864350D01*
G01D02*
X5258050Y4762500D01*
G01D02*
X5278370Y4660650D01*
G01D02*
X5336030Y4574030D01*
G01D02*
X5338060Y4572000D01*
G01X5712970Y4950970D02*
X5626350Y5008630D01*
G01D02*
X5524500Y5028950D01*
G01D02*
X5422650Y5008630D01*
G01D02*
X5336030Y4950970D01*
G01X5712970Y4574030D02*
X5770630Y4660650D01*
G01D02*
X5790950Y4762500D01*
G01D02*
X5770630Y4864350D01*
G01D02*
X5712970Y4950970D01*
G54D12*
G01X2032000Y3073400D02*
Y2921000D01*
X1968500Y2857500D01*
Y2730500D01*
X2032000Y2667000D01*
Y2514600D01*
X1016000D01*
Y3073400D01*
X2032000D01*
G01X373000Y3127000D02*
X627000D01*
Y2111000D01*
X373000D01*
Y3127000D01*
G01X403060Y3225400D02*
X411100Y3212700D01*
X420750Y3204230D01*
X432010Y3200000D01*
X444880Y3204230D01*
X454530Y3212700D01*
X464190Y3225400D01*
X467400Y3242330D01*
Y3327000D01*
G01X564770Y3200000D02*
Y3327000D01*
X545470Y3301600D01*
G01Y3200000D02*
X584070D01*
G01X373000Y4627000D02*
X627000D01*
Y3865000D01*
X373000D01*
Y4627000D01*
G01X441160Y4715750D02*
X446030Y4707870D01*
X451870Y4702620D01*
X458680Y4700000D01*
X466470Y4702620D01*
X472310Y4707870D01*
X478160Y4715750D01*
X480100Y4726250D01*
Y4778740D01*
G01X520870Y4765620D02*
X526710Y4773490D01*
X533530Y4777430D01*
X541320Y4778740D01*
X551050Y4776120D01*
X557870Y4769550D01*
X559820Y4761680D01*
X558840Y4753800D01*
X554950Y4747240D01*
X535480Y4734120D01*
X526710Y4724930D01*
X520870Y4711810D01*
X518920Y4700000D01*
X559820D01*
G01X1913420Y618380D02*
X1919770Y628030D01*
X1924000Y639290D01*
Y652160D01*
X1917650Y666640D01*
X1907070Y677900D01*
X1894370Y685940D01*
X1873200Y692380D01*
X1854150Y693990D01*
X1835100Y690770D01*
X1822400Y685940D01*
X1809700Y676290D01*
X1801230Y665030D01*
X1797000Y653770D01*
Y642510D01*
X1801230Y631250D01*
X1807580Y621600D01*
X1816050Y613550D01*
G01X1822400Y559620D02*
X1807580Y549970D01*
X1799120Y537100D01*
X1797000Y522620D01*
X1799120Y509750D01*
X1809700Y496880D01*
X1822400Y488840D01*
X1835100Y487230D01*
X1849910Y490450D01*
X1860500Y501710D01*
X1864730Y512970D01*
Y527450D01*
G01Y512970D02*
X1871080Y503320D01*
X1881660Y495270D01*
X1894370Y492060D01*
X1907070Y495270D01*
X1917650Y503320D01*
X1924000Y517800D01*
X1921880Y532270D01*
X1913420Y546750D01*
G01X1778000Y889000D02*
G03I-254000J0D01*
G01X1887220Y2269320D02*
X1796200D01*
X1777150Y2262890D01*
X1764450Y2250020D01*
X1760220Y2233930D01*
X1764450Y2217840D01*
X1777150Y2204970D01*
X1796200Y2198540D01*
X1887220D01*
G01X1785620Y2139780D02*
X1770800Y2130130D01*
X1762340Y2117260D01*
X1760220Y2102780D01*
X1762340Y2089910D01*
X1772920Y2077040D01*
X1785620Y2069000D01*
X1798320Y2067390D01*
X1813130Y2070610D01*
X1823720Y2081870D01*
X1827950Y2093130D01*
Y2107610D01*
G01Y2093130D02*
X1834300Y2083480D01*
X1844880Y2075430D01*
X1857590Y2072220D01*
X1870290Y2075430D01*
X1880870Y2083480D01*
X1887220Y2097960D01*
X1885100Y2112430D01*
X1876640Y2126910D01*
G01X1752600Y5334000D02*
X1905000D01*
X1968500Y5270500D01*
X2095500D01*
X2159000Y5334000D01*
X2311400D01*
Y4318000D01*
X1752600D01*
Y5334000D01*
G01X2625940Y2400300D02*
Y2479040D01*
X2650280D01*
X2658070Y2475100D01*
X2662940Y2469850D01*
X2664880Y2459350D01*
X2662940Y2448860D01*
X2657090Y2442300D01*
X2650280Y2438360D01*
X2625940D01*
G01X2650280D02*
X2664880Y2400300D01*
G01X2722200D02*
X2724150Y2417360D01*
X2727070Y2431790D01*
X2730970Y2444920D01*
X2735830Y2459350D01*
X2743620Y2479040D01*
X2704680D01*
G01X2349500Y1930400D02*
Y2641600D01*
X2603500D01*
Y1930400D01*
X2349500D01*
G01X2556680Y5189220D02*
Y5098200D01*
X2563110Y5079150D01*
X2575980Y5066450D01*
X2592070Y5062220D01*
X2608160Y5066450D01*
X2621030Y5079150D01*
X2627460Y5098200D01*
Y5189220D01*
G01X2721610Y5062220D02*
Y5189220D01*
X2702310Y5163820D01*
G01Y5062220D02*
X2740910D01*
G01X2794000Y1041400D02*
Y1752600D01*
X3048000D01*
Y1041400D01*
X2794000D01*
G01X2721000Y1830160D02*
X2642260D01*
Y1854500D01*
X2646200Y1862290D01*
X2651450Y1867160D01*
X2661950Y1869100D01*
X2672440Y1867160D01*
X2679000Y1861310D01*
X2682940Y1854500D01*
Y1830160D01*
G01Y1854500D02*
X2721000Y1869100D01*
G01Y1928370D02*
X2719690Y1935190D01*
X2715750Y1942970D01*
X2709190Y1947840D01*
X2700000Y1949790D01*
X2690820Y1947840D01*
X2682940Y1942000D01*
X2679000Y1933240D01*
Y1923500D01*
X2676380Y1917660D01*
X2669820Y1912790D01*
X2660630Y1910840D01*
X2651450Y1913770D01*
X2644880Y1920580D01*
X2642260Y1928370D01*
X2644880Y1936160D01*
X2651450Y1942970D01*
X2660630Y1945900D01*
X2669820Y1943950D01*
X2676380Y1939080D01*
X2679000Y1933240D01*
Y1923500D01*
X2682940Y1914740D01*
X2690820Y1908900D01*
X2700000Y1906950D01*
X2709190Y1908900D01*
X2715750Y1913770D01*
X2719690Y1921550D01*
X2721000Y1928370D01*
G01X3327400Y3683000D02*
X4038600D01*
Y3429000D01*
X3327400D01*
Y3683000D01*
G01X3975100Y3937000D02*
X3263900D01*
Y4191000D01*
X3975100D01*
Y3937000D01*
G01X3746500Y4572000D02*
G03I-254000J0D01*
G01X3657600Y3111500D02*
X3810000D01*
X3873500Y3048000D01*
X4000500D01*
X4064000Y3111500D01*
X4216400D01*
Y2095500D01*
X3657600D01*
Y3111500D01*
G01X3797300Y3406560D02*
X3876040D01*
Y3382220D01*
X3872100Y3374430D01*
X3866850Y3369560D01*
X3856350Y3367620D01*
X3845860Y3369560D01*
X3839300Y3375410D01*
X3835360Y3382220D01*
Y3406560D01*
G01Y3382220D02*
X3797300Y3367620D01*
G01X3830110Y3326850D02*
X3839300Y3320030D01*
X3844540Y3314190D01*
X3847170Y3306400D01*
X3844540Y3299590D01*
X3839300Y3294720D01*
X3831420Y3290820D01*
X3822230Y3289850D01*
X3814360Y3290820D01*
X3806480Y3294720D01*
X3799920Y3300560D01*
X3797300Y3307380D01*
X3799920Y3315170D01*
X3807800Y3321980D01*
X3819610Y3325880D01*
X3832730Y3326850D01*
X3849790Y3324900D01*
X3858980Y3321980D01*
X3868170Y3317110D01*
X3874730Y3310300D01*
X3876040Y3303480D01*
X3873420Y3296670D01*
X3866850Y3291800D01*
G01X3786340Y3864000D02*
Y3785260D01*
X3762000D01*
X3754210Y3789200D01*
X3749340Y3794450D01*
X3747400Y3804950D01*
X3749340Y3815440D01*
X3755190Y3822000D01*
X3762000Y3825940D01*
X3786340D01*
G01X3762000D02*
X3747400Y3864000D01*
G01X3709550Y3852190D02*
X3703710Y3858750D01*
X3696890Y3862690D01*
X3688130Y3864000D01*
X3679370Y3861380D01*
X3672550Y3856130D01*
X3667680Y3846940D01*
X3666710Y3836440D01*
X3668660Y3825940D01*
X3673530Y3819380D01*
X3680340Y3814130D01*
X3687160Y3812820D01*
X3693970Y3814130D01*
X3702730Y3819380D01*
X3699810Y3785260D01*
X3673530D01*
G01X3848880Y4155580D02*
X3858530Y4149230D01*
X3869790Y4145000D01*
X3882660D01*
X3897140Y4151350D01*
X3908400Y4161930D01*
X3916440Y4174630D01*
X3922880Y4195800D01*
X3924490Y4214850D01*
X3921270Y4233900D01*
X3916440Y4246600D01*
X3906790Y4259300D01*
X3895530Y4267770D01*
X3884270Y4272000D01*
X3873010D01*
X3861750Y4267770D01*
X3852100Y4261420D01*
X3844050Y4252950D01*
G01X3785300Y4166170D02*
X3775640Y4153470D01*
X3764380Y4147120D01*
X3751510Y4145000D01*
X3735430Y4149230D01*
X3724160Y4159820D01*
X3720950Y4172510D01*
X3722560Y4185220D01*
X3728990Y4195800D01*
X3761160Y4216970D01*
X3775640Y4231780D01*
X3785300Y4252950D01*
X3788510Y4272000D01*
X3720950D01*
G01X4114800Y5311560D02*
X4193540D01*
Y5287220D01*
X4189600Y5279430D01*
X4184350Y5274560D01*
X4173850Y5272620D01*
X4163360Y5274560D01*
X4156800Y5280410D01*
X4152860Y5287220D01*
Y5311560D01*
G01Y5287220D02*
X4114800Y5272620D01*
G01X4180420Y5231850D02*
X4188290Y5226010D01*
X4192230Y5219190D01*
X4193540Y5211400D01*
X4190920Y5201670D01*
X4184350Y5194850D01*
X4176480Y5192900D01*
X4168600Y5193880D01*
X4162040Y5197770D01*
X4148920Y5217240D01*
X4139730Y5226010D01*
X4126610Y5231850D01*
X4114800Y5233800D01*
Y5192900D01*
G01X3644900Y5588000D02*
X4356100D01*
Y5334000D01*
X3644900D01*
Y5588000D01*
G01X5905500Y2882900D02*
Y2730500D01*
X5842000Y2667000D01*
Y2540000D01*
X5905500Y2476500D01*
Y2324100D01*
X4889500D01*
Y2882900D01*
X5905500D01*
G01X4461680Y2966720D02*
Y2875700D01*
X4468110Y2856650D01*
X4480980Y2843950D01*
X4497070Y2839720D01*
X4513160Y2843950D01*
X4526030Y2856650D01*
X4532460Y2875700D01*
Y2966720D01*
G01X4645910Y2839720D02*
Y2966720D01*
X4586390Y2875700D01*
X4666830D01*
G01X4699000Y4800600D02*
Y4089400D01*
X4445000D01*
Y4800600D01*
X4699000D01*
G01X4313160Y4753000D02*
Y4831740D01*
X4337500D01*
X4345290Y4827800D01*
X4350160Y4822550D01*
X4352100Y4812050D01*
X4350160Y4801560D01*
X4344310Y4795000D01*
X4337500Y4791060D01*
X4313160D01*
G01X4337500D02*
X4352100Y4753000D01*
G01X4423050D02*
Y4831740D01*
X4387030Y4775310D01*
X4435710D01*
G01X5760720Y2078820D02*
X5669700D01*
X5650650Y2072390D01*
X5637950Y2059520D01*
X5633720Y2043430D01*
X5637950Y2027340D01*
X5650650Y2014470D01*
X5669700Y2008040D01*
X5760720D01*
G01X5652770Y1949280D02*
X5642180Y1939630D01*
X5635840Y1928370D01*
X5633720Y1913890D01*
X5637950Y1899410D01*
X5646420Y1888150D01*
X5661230Y1880110D01*
X5678170Y1878500D01*
X5695100Y1881720D01*
X5705690Y1889760D01*
X5714150Y1901020D01*
X5716270Y1912280D01*
X5714150Y1923540D01*
X5705690Y1938020D01*
X5760720Y1933190D01*
Y1889760D01*
G01X5319010Y4345940D02*
X5300040Y4349110D01*
X5283450Y4361810D01*
X5269230Y4380860D01*
X5259740Y4403090D01*
X5255000Y4428490D01*
Y4453890D01*
X5259740Y4479290D01*
X5269230Y4501520D01*
X5283450Y4520560D01*
X5300040Y4533270D01*
X5319010Y4536440D01*
X5337970Y4533270D01*
X5354570Y4520560D01*
X5368790Y4501520D01*
X5378280Y4479290D01*
X5383020Y4453890D01*
Y4428490D01*
X5378280Y4403090D01*
X5368790Y4380860D01*
X5354570Y4361810D01*
X5337970Y4349110D01*
X5319010Y4345940D01*
G01X5337970Y4396740D02*
X5366420Y4345940D01*
G01X5509510D02*
Y4536440D01*
X5481060Y4498340D01*
G01Y4345940D02*
X5537950D01*
G01X5588000Y6032500D02*
Y5397500D01*
X5080000D01*
Y6032500D01*
X5588000D01*
G01X5337240Y6288000D02*
X5377460Y6161000D01*
X5417680Y6288000D01*
G01X5474830Y6161000D02*
Y6288000D01*
X5515040D01*
X5527910Y6281650D01*
X5535960Y6273180D01*
X5539170Y6256250D01*
X5535960Y6239320D01*
X5526300Y6228730D01*
X5515040Y6222380D01*
X5474830D01*
G01X5515040D02*
X5539170Y6161000D01*
G01X5636540D02*
Y6288000D01*
X5617240Y6262600D01*
G01Y6161000D02*
X5655840D01*
G01X6540500Y4191000D02*
G03I-254000J0D01*
G01X6157120Y4634420D02*
X6147470Y4640770D01*
X6136210Y4645000D01*
X6123340D01*
X6108860Y4638650D01*
X6097600Y4628070D01*
X6089560Y4615370D01*
X6083120Y4594200D01*
X6081510Y4575150D01*
X6084730Y4556100D01*
X6089560Y4543400D01*
X6099210Y4530700D01*
X6110470Y4522230D01*
X6121730Y4518000D01*
X6132990D01*
X6144250Y4522230D01*
X6153900Y4528580D01*
X6161950Y4537050D01*
G01X6251270Y4518000D02*
Y4645000D01*
X6231970Y4619600D01*
G01Y4518000D02*
X6270570D01*
G01X5919660Y5470500D02*
Y5549240D01*
X5944000D01*
X5951790Y5545300D01*
X5956660Y5540050D01*
X5958600Y5529550D01*
X5956660Y5519060D01*
X5950810Y5512500D01*
X5944000Y5508560D01*
X5919660D01*
G01X5944000D02*
X5958600Y5470500D01*
G01X5996450Y5486250D02*
X6002290Y5477060D01*
X6010080Y5471810D01*
X6018840Y5470500D01*
X6026630Y5471810D01*
X6034420Y5478370D01*
X6039290Y5486250D01*
X6040260Y5494120D01*
X6038320Y5503310D01*
X6031500Y5509870D01*
X6024690Y5512500D01*
X6015920D01*
G01X6024690D02*
X6030530Y5516430D01*
X6035400Y5522990D01*
X6037340Y5530870D01*
X6035400Y5538740D01*
X6030530Y5545300D01*
X6021760Y5549240D01*
X6013000Y5547930D01*
X6004240Y5542680D01*
G01X5930900Y5397500D02*
X6642100D01*
Y5143500D01*
X5930900D01*
Y5397500D01*
G01X6451600Y3746500D02*
X6604000D01*
X6667500Y3683000D01*
X6794500D01*
X6858000Y3746500D01*
X7010400D01*
Y2730500D01*
X6451600D01*
Y3746500D01*
G01X7073900Y4889500D02*
X7785100D01*
Y4635500D01*
X7073900D01*
Y4889500D01*
G01X6962660Y4962500D02*
Y5041240D01*
X6987000D01*
X6994790Y5037300D01*
X6999660Y5032050D01*
X7001600Y5021550D01*
X6999660Y5011060D01*
X6993810Y5004500D01*
X6987000Y5000560D01*
X6962660D01*
G01X6987000D02*
X7001600Y4962500D01*
G01X7060870D02*
Y5041240D01*
X7049190Y5025490D01*
G01Y4962500D02*
X7072550D01*
G01X7574280Y3297260D02*
X7510780D01*
Y3310810D01*
X7513960Y3316220D01*
X7518190Y3320290D01*
X7524540Y3323680D01*
X7531950Y3326380D01*
X7542530Y3327060D01*
X7553110Y3326380D01*
X7560520Y3323680D01*
X7566870Y3320290D01*
X7571110Y3316220D01*
X7574280Y3310810D01*
Y3297260D01*
G01Y3368040D02*
X7510780D01*
X7523480Y3359910D01*
G01X7574280D02*
Y3376170D01*
G01X7874000Y3683000D02*
Y3200400D01*
X7620000D01*
Y3683000D01*
X7874000D01*
G01X7255680Y3601720D02*
Y3510700D01*
X7262110Y3491650D01*
X7274980Y3478950D01*
X7291070Y3474720D01*
X7307160Y3478950D01*
X7320030Y3491650D01*
X7326460Y3510700D01*
Y3601720D01*
G01X7390040Y3580550D02*
X7399700Y3593250D01*
X7410960Y3599600D01*
X7423830Y3601720D01*
X7439910Y3597490D01*
X7451180Y3586900D01*
X7454390Y3574210D01*
X7452780Y3561500D01*
X7446350Y3550920D01*
X7414180Y3529750D01*
X7399700Y3514940D01*
X7390040Y3493770D01*
X7386830Y3474720D01*
X7454390D01*
G01X7874000Y3594100D02*
X7620000D01*
G01X7874000Y3606800D02*
X7620000D01*
G01X8509000Y2882900D02*
Y3594100D01*
X8763000D01*
Y2882900D01*
X8509000D01*
G01X8569260Y4062500D02*
X8529040Y4189500D01*
X8488820Y4062500D01*
G01X8431670Y4189500D02*
Y4062500D01*
X8391460D01*
X8378590Y4068850D01*
X8370540Y4077320D01*
X8367330Y4094250D01*
X8370540Y4111180D01*
X8380200Y4121770D01*
X8391460Y4128120D01*
X8431670D01*
G01X8391460D02*
X8367330Y4189500D01*
G01X8300530Y4083670D02*
X8290870Y4070970D01*
X8279610Y4064620D01*
X8266740Y4062500D01*
X8250660Y4066730D01*
X8239390Y4077320D01*
X8236180Y4090010D01*
X8237790Y4102720D01*
X8244220Y4113300D01*
X8276390Y4134470D01*
X8290870Y4149280D01*
X8300530Y4170450D01*
X8303740Y4189500D01*
X8236180D01*
G01X8577160Y3930500D02*
Y4009240D01*
X8601500D01*
X8609290Y4005300D01*
X8614160Y4000050D01*
X8616100Y3989550D01*
X8614160Y3979060D01*
X8608310Y3972500D01*
X8601500Y3968560D01*
X8577160D01*
G01X8601500D02*
X8616100Y3930500D01*
G01X8658820Y3939680D02*
X8665630Y3933120D01*
X8673420Y3930500D01*
X8681210Y3933120D01*
X8688030Y3941000D01*
X8692900Y3952810D01*
X8694840Y3964620D01*
Y3979060D01*
X8692900Y3990870D01*
X8688030Y4001370D01*
X8682190Y4006620D01*
X8675370Y4009240D01*
X8667580Y4006620D01*
X8661740Y4001370D01*
X8657840Y3993490D01*
X8655900Y3982990D01*
X8657840Y3973810D01*
X8662710Y3964620D01*
X8668550Y3959370D01*
X8675370Y3958060D01*
X8683160Y3960680D01*
X8689000Y3967240D01*
X8694840Y3979060D01*
G01X8318500Y4318000D02*
Y4953000D01*
X8826500D01*
Y4318000D01*
X8318500D01*
G01X9373000Y4127000D02*
X9627000D01*
Y3619000D01*
X9373000D01*
Y4127000D01*
G01X9655450Y4129960D02*
X9647570Y4125090D01*
X9642320Y4119250D01*
X9639700Y4112440D01*
X9642320Y4104650D01*
X9647570Y4098810D01*
X9655450Y4092960D01*
X9665950Y4091020D01*
X9718440D01*
G01X9655450Y4053170D02*
X9646260Y4047330D01*
X9641010Y4039540D01*
X9639700Y4030780D01*
X9641010Y4022990D01*
X9647570Y4015200D01*
X9655450Y4010330D01*
X9663320Y4009360D01*
X9672510Y4011300D01*
X9679070Y4018120D01*
X9681700Y4024930D01*
Y4033700D01*
G01Y4024930D02*
X9685630Y4019090D01*
X9692190Y4014220D01*
X9700070Y4012280D01*
X9707940Y4014220D01*
X9714500Y4019090D01*
X9718440Y4027860D01*
X9717130Y4036620D01*
X9711880Y4045380D01*
M02*
