G04 ================== begin FILE IDENTIFICATION RECORD ==================*
G04 Layout Name:  C:/work_CrCAD/allegro/CAD_EX73022.brd*
G04 Film Name:    SolderB*
G04 File Format:  Gerber RS274X*
G04 File Origin:  Cadence Allegro 17.2-P019*
G04 Origin Date:  Tue Jul 30 16:54:06 2019*
G04 *
G04 Layer:  VIA CLASS/SOLDERMASK_BOTTOM*
G04 Layer:  PIN/SOLDERMASK_BOTTOM*
G04 Layer:  PACKAGE GEOMETRY/SOLDERMASK_BOTTOM*
G04 Layer:  BOARD GEOMETRY/SOLDERMASK_BOTTOM*
G04 *
G04 Offset:    (0.0000 0.0000)*
G04 Mirror:    No*
G04 Mode:      Positive*
G04 Rotation:  0*
G04 FullContactRelief:  No*
G04 UndefLineWidth:     0.0000*
G04 ================== end FILE IDENTIFICATION RECORD ====================*
%FSLAX25Y25*MOMM*%
%IR0*IPPOS*OFA0.00000B0.00000*MIA0B0*SFA1.00000B1.00000*%
%ADD16O,1.016X1.524*%
%ADD15R,1.016X1.524*%
%ADD13C,2.032*%
%ADD17C,5.08*%
%ADD11C,1.905*%
%ADD14C,1.1176*%
%ADD10C,3.683*%
%ADD12R,1.905X1.905*%
%LPD*%
G75*
G54D10*
X500000Y500000D03*
Y6500000D03*
X9500000D03*
G54D11*
X1143000Y2413000D03*
X500000Y2238000D03*
Y2492000D03*
X1143000Y3175000D03*
X500000Y2746000D03*
Y3000000D03*
Y3992000D03*
Y4246000D03*
Y4500000D03*
X1651000Y889000D03*
X1397000D03*
Y2413000D03*
X1651000D03*
X1905000D03*
X1397000Y3175000D03*
X1651000D03*
Y4445000D03*
Y4699000D03*
Y4953000D03*
X2413000Y4445000D03*
Y4699000D03*
Y4953000D03*
Y5207000D03*
X3365500Y4572000D03*
X3556000Y2222500D03*
Y2476500D03*
Y2730500D03*
X3619500Y4572000D03*
X4318000Y2222500D03*
Y2476500D03*
Y2730500D03*
X5016500Y2222500D03*
X4318000Y2984500D03*
X5016500D03*
X5270500Y2222500D03*
X5524500D03*
X5778500D03*
X5270500Y2984500D03*
X5524500D03*
X5461000Y5715000D03*
X5207000Y5461000D03*
Y5969000D03*
X6350000Y2857500D03*
Y3111500D03*
Y3365500D03*
X6286500Y4064000D03*
Y4318000D03*
X7112000Y2857500D03*
Y3111500D03*
Y3365500D03*
Y3619500D03*
X7747000Y2946400D03*
X8699500Y4381500D03*
X8445500Y4635500D03*
X8699500Y4889500D03*
X9500000Y3746000D03*
Y4000000D03*
G54D12*
X1905000Y3175000D03*
X1651000Y5207000D03*
X3556000Y2984500D03*
X5778500D03*
X6350000Y3619500D03*
X7747000Y3937000D03*
G54D13*
X2476500Y1778000D03*
Y2794000D03*
X2921000Y889000D03*
Y1905000D03*
X3175000Y3556000D03*
X3111500Y4064000D03*
X3492500Y5461000D03*
X4191000Y3556000D03*
X4127500Y4064000D03*
X4572000Y3937000D03*
Y4953000D03*
X4508500Y5461000D03*
X5778500Y5270500D03*
X6921500Y4762500D03*
X6794500Y5270500D03*
X7937500Y4762500D03*
X8636000Y2730500D03*
Y3746500D03*
G54D14*
X4953000Y3238500D03*
G54D15*
X5397500Y4762500D03*
G54D16*
X5524500D03*
X5651500D03*
G54D17*
X9400000Y600000D03*
M02*
