G04 ================== begin FILE IDENTIFICATION RECORD ==================*
G04 Layout Name:  C:/work_CrCAD/allegro/CAD_EX73022.brd*
G04 Film Name:    TOP*
G04 File Format:  Gerber RS274X*
G04 File Origin:  Cadence Allegro 17.2-P019*
G04 Origin Date:  Tue Jul 30 16:54:06 2019*
G04 *
G04 Layer:  ETCH/TOP*
G04 Layer:  PIN/TOP*
G04 Layer:  VIA CLASS/TOP*
G04 *
G04 Offset:    (0.0000 0.0000)*
G04 Mirror:    No*
G04 Mode:      Positive*
G04 Rotation:  0*
G04 FullContactRelief:  No*
G04 UndefLineWidth:     0.0000*
G04 ================== end FILE IDENTIFICATION RECORD ====================*
%FSLAX25Y25*MOMM*%
%IR0*IPPOS*OFA0.00000B0.00000*MIA0B0*SFA1.00000B1.00000*%
%ADD10C,.635*%
%ADD14C,.6096*%
%ADD16O,1.016X1.524*%
%ADD15R,1.016X1.524*%
%ADD17C,1.27*%
%ADD11C,1.524*%
%ADD13C,1.651*%
%ADD12R,1.524X1.524*%
%ADD18C,.5*%
%ADD19C,1.*%
G75*
%LPD*%
G75*
G54D10*
X500000Y500000D03*
Y6500000D03*
X9500000D03*
G54D11*
X1143000Y2413000D03*
X500000Y2238000D03*
Y2492000D03*
X1143000Y3175000D03*
X500000Y2746000D03*
Y3000000D03*
Y3992000D03*
Y4246000D03*
Y4500000D03*
X1651000Y889000D03*
X1397000D03*
Y2413000D03*
X1651000D03*
X1905000D03*
X1397000Y3175000D03*
X1651000D03*
Y4445000D03*
Y4699000D03*
Y4953000D03*
X2413000Y4445000D03*
Y4699000D03*
Y4953000D03*
Y5207000D03*
X3365500Y4572000D03*
X3556000Y2222500D03*
Y2476500D03*
Y2730500D03*
X3619500Y4572000D03*
X4318000Y2222500D03*
Y2476500D03*
Y2730500D03*
X5016500Y2222500D03*
X4318000Y2984500D03*
X5016500D03*
X5270500Y2222500D03*
X5524500D03*
X5778500D03*
X5270500Y2984500D03*
X5524500D03*
X5461000Y5715000D03*
X5207000Y5461000D03*
Y5969000D03*
X6350000Y2857500D03*
Y3111500D03*
Y3365500D03*
X6286500Y4064000D03*
Y4318000D03*
X7112000Y2857500D03*
Y3111500D03*
Y3365500D03*
Y3619500D03*
X7747000Y2946400D03*
X8699500Y4381500D03*
X8445500Y4635500D03*
X8699500Y4889500D03*
X9500000Y3746000D03*
Y4000000D03*
G54D12*
X1905000Y3175000D03*
X1651000Y5207000D03*
X3556000Y2984500D03*
X5778500D03*
X6350000Y3619500D03*
X7747000Y3937000D03*
G54D13*
X2476500Y1778000D03*
Y2794000D03*
X2921000Y889000D03*
Y1905000D03*
X3175000Y3556000D03*
X3111500Y4064000D03*
X3492500Y5461000D03*
X4191000Y3556000D03*
X4127500Y4064000D03*
X4572000Y3937000D03*
Y4953000D03*
X4508500Y5461000D03*
X5778500Y5270500D03*
X6921500Y4762500D03*
X6794500Y5270500D03*
X7937500Y4762500D03*
X8636000Y2730500D03*
Y3746500D03*
G54D14*
X4953000Y3238500D03*
G54D15*
X5397500Y4762500D03*
G54D16*
X5524500D03*
X5651500D03*
G54D17*
X9400000Y600000D03*
G54D18*
G01X500000Y4246000D02*
X825500Y3920500D01*
Y2730500D01*
X952500Y2603500D01*
X1791500D01*
X1841500Y2553500D01*
Y2476500D01*
X1905000Y2413000D01*
G01X1397000Y3175000D02*
Y3603000D01*
X500000Y4500000D01*
G01X1397000Y889000D02*
Y2413000D01*
G01X2413000Y4953000D02*
Y4699000D01*
G01X3175000Y3556000D02*
X3365500Y3365500D01*
Y2780500D01*
X3415500Y2730500D01*
X3556000D01*
G01X3111500Y4064000D02*
Y3739760D01*
X3175000Y3676260D01*
Y3556000D01*
G01X3556000Y2476500D02*
Y2730500D01*
G01X7112000Y3111500D02*
X6998100Y2997600D01*
X6096000D01*
X5786920Y3306680D01*
X4757820D01*
X4127500Y3937000D01*
Y4064000D01*
G01X4191000Y3556000D02*
X4445000Y3302000D01*
Y2603500D01*
X4318000Y2476500D01*
G01X4508500Y5461000D02*
Y5340740D01*
X4572000Y5277240D01*
Y4953000D01*
G01X5270500Y2222500D02*
X5461000Y2032000D01*
X7239000D01*
X7493000Y2286000D01*
Y3683000D01*
X7747000Y3937000D01*
G01X5778500Y5270500D02*
Y4914900D01*
X5651500Y4787900D01*
Y4762500D01*
G01X6286500Y4318000D02*
X5820860D01*
X5643820Y4495040D01*
G01D02*
X5651500Y4502720D01*
Y4762500D01*
G01X5643820Y4495040D02*
X5490260Y4648600D01*
X5486000D01*
X5397500Y4737100D01*
Y4762500D01*
G01X5524500D02*
Y5411000D01*
X5474500Y5461000D01*
X5207000D01*
G01X6921500Y4762500D02*
Y3492500D01*
X6794500Y3365500D01*
X6350000D01*
G01X8699500Y4381500D02*
X7493000D01*
X7429500Y4318000D01*
Y3429000D01*
X7112000Y3111500D01*
G01X6794500Y5270500D02*
Y4889500D01*
X6921500Y4762500D01*
G01X8636000Y3746500D02*
X8550960Y3661460D01*
X8462060D01*
X7747000Y2946400D01*
G01X9500000Y4000000D02*
X9246500Y3746500D01*
X8636000D01*
G01X8445500Y4635500D02*
X8699500Y4889500D01*
G54D19*
G01X4318000Y2730500D02*
X4064000D01*
X3694900Y2361400D01*
Y2043900D01*
X3556000Y1905000D01*
X3126430D01*
X2981180Y2050250D01*
X2775740D01*
X2025540Y2800450D01*
Y3054460D01*
X1905000Y3175000D01*
G01X5016500Y2984500D02*
X5334000Y2667000D01*
X6159500D01*
X6350000Y2857500D01*
G01X5461000Y5715000D02*
X5207000Y5969000D01*
M02*
